{
    "asset" : {
        "generator" : "Khronos glTF Blender I/O v3.4.50",
        "version" : "2.0"
    },
    "scene" : 0,
    "scenes" : [
        {
            "name" : "Scene",
            "nodes" : [
                0
            ]
        }
    ],
    "nodes" : [
        {
            "mesh" : 0,
            "name" : "Cylinder",
            "scale" : [
                0.03047892451286316,
                0.03047892451286316,
                0.03047892451286316
            ],
            "translation" : [
                0,
                0.04164949804544449,
                -4.187635113339638e-06
            ]
        }
    ],
    "materials" : [
        {
            "doubleSided" : true,
            "emissiveFactor" : [
                0.11010535061359406,
                0.11010535061359406,
                0.11010535061359406
            ],
            "name" : "cardboard",
            "pbrMetallicRoughness" : {
                "baseColorFactor" : [
                    0.8859409689903259,
                    0.8859409689903259,
                    0.8859409689903259,
                    1
                ],
                "metallicFactor" : 0,
                "roughnessFactor" : 0.4999999403953552
            }
        }
    ],
    "meshes" : [
        {
            "name" : "Cylinder",
            "primitives" : [
                {
                    "attributes" : {
                        "POSITION" : 0,
                        "TEXCOORD_0" : 1,
                        "NORMAL" : 2
                    },
                    "indices" : 3,
                    "material" : 0
                }
            ]
        }
    ],
    "accessors" : [
        {
            "bufferView" : 0,
            "componentType" : 5126,
            "count" : 71808,
            "max" : [
                1.1611939668655396,
                1.3568685054779053,
                1.2255247831344604
            ],
            "min" : [
                -1.1602391004562378,
                -1.3664711713790894,
                -1.22604501247406
            ],
            "type" : "VEC3"
        },
        {
            "bufferView" : 1,
            "componentType" : 5126,
            "count" : 71808,
            "type" : "VEC2"
        },
        {
            "bufferView" : 2,
            "componentType" : 5126,
            "count" : 71808,
            "type" : "VEC3"
        },
        {
            "bufferView" : 3,
            "componentType" : 5125,
            "count" : 107712,
            "type" : "SCALAR"
        }
    ],
    "bufferViews" : [
        {
            "buffer" : 0,
            "byteLength" : 861696,
            "byteOffset" : 0,
            "target" : 34962
        },
        {
            "buffer" : 0,
            "byteLength" : 574464,
            "byteOffset" : 861696,
            "target" : 34962
        },
        {
            "buffer" : 0,
            "byteLength" : 861696,
            "byteOffset" : 1436160,
            "target" : 34962
        },
        {
            "buffer" : 0,
            "byteLength" : 430848,
            "byteOffset" : 2297856,
            "target" : 34963
        }
    ],
    "buffers" : [
        {
            "byteLength" : 2728704,
            "uri" : "data:application/octet-stream;base64,"
        }
    ]
}
